<svg xmlns="http://www.w3.org/2000/svg" width="18.5mm" height="18.5mm" viewBox="0 0 18.5 18.5">
<g fill="black" stroke="none">
<rect x="2.0" y="2.0" width="0.5" height="0.5"/>
<rect x="2.5" y="2.0" width="0.5" height="0.5"/>
<rect x="3.0" y="2.0" width="0.5" height="0.5"/>
<rect x="3.5" y="2.0" width="0.5" height="0.5"/>
<rect x="4.0" y="2.0" width="0.5" height="0.5"/>
<rect x="4.5" y="2.0" width="0.5" height="0.5"/>
<rect x="5.0" y="2.0" width="0.5" height="0.5"/>
<rect x="6.0" y="2.0" width="0.5" height="0.5"/>
<rect x="6.5" y="2.0" width="0.5" height="0.5"/>
<rect x="7.0" y="2.0" width="0.5" height="0.5"/>
<rect x="8.5" y="2.0" width="0.5" height="0.5"/>
<rect x="11.0" y="2.0" width="0.5" height="0.5"/>
<rect x="12.0" y="2.0" width="0.5" height="0.5"/>
<rect x="13.0" y="2.0" width="0.5" height="0.5"/>
<rect x="13.5" y="2.0" width="0.5" height="0.5"/>
<rect x="14.0" y="2.0" width="0.5" height="0.5"/>
<rect x="14.5" y="2.0" width="0.5" height="0.5"/>
<rect x="15.0" y="2.0" width="0.5" height="0.5"/>
<rect x="15.5" y="2.0" width="0.5" height="0.5"/>
<rect x="16.0" y="2.0" width="0.5" height="0.5"/>
<rect x="2.0" y="2.5" width="0.5" height="0.5"/>
<rect x="5.0" y="2.5" width="0.5" height="0.5"/>
<rect x="6.0" y="2.5" width="0.5" height="0.5"/>
<rect x="7.5" y="2.5" width="0.5" height="0.5"/>
<rect x="10.0" y="2.5" width="0.5" height="0.5"/>
<rect x="11.5" y="2.5" width="0.5" height="0.5"/>
<rect x="13.0" y="2.5" width="0.5" height="0.5"/>
<rect x="16.0" y="2.5" width="0.5" height="0.5"/>
<rect x="2.0" y="3.0" width="0.5" height="0.5"/>
<rect x="3.0" y="3.0" width="0.5" height="0.5"/>
<rect x="3.5" y="3.0" width="0.5" height="0.5"/>
<rect x="4.0" y="3.0" width="0.5" height="0.5"/>
<rect x="5.0" y="3.0" width="0.5" height="0.5"/>
<rect x="6.0" y="3.0" width="0.5" height="0.5"/>
<rect x="6.5" y="3.0" width="0.5" height="0.5"/>
<rect x="7.0" y="3.0" width="0.5" height="0.5"/>
<rect x="8.5" y="3.0" width="0.5" height="0.5"/>
<rect x="9.0" y="3.0" width="0.5" height="0.5"/>
<rect x="10.0" y="3.0" width="0.5" height="0.5"/>
<rect x="11.5" y="3.0" width="0.5" height="0.5"/>
<rect x="12.0" y="3.0" width="0.5" height="0.5"/>
<rect x="13.0" y="3.0" width="0.5" height="0.5"/>
<rect x="14.0" y="3.0" width="0.5" height="0.5"/>
<rect x="14.5" y="3.0" width="0.5" height="0.5"/>
<rect x="15.0" y="3.0" width="0.5" height="0.5"/>
<rect x="16.0" y="3.0" width="0.5" height="0.5"/>
<rect x="2.0" y="3.5" width="0.5" height="0.5"/>
<rect x="3.0" y="3.5" width="0.5" height="0.5"/>
<rect x="3.5" y="3.5" width="0.5" height="0.5"/>
<rect x="4.0" y="3.5" width="0.5" height="0.5"/>
<rect x="5.0" y="3.5" width="0.5" height="0.5"/>
<rect x="6.5" y="3.5" width="0.5" height="0.5"/>
<rect x="7.0" y="3.5" width="0.5" height="0.5"/>
<rect x="7.5" y="3.5" width="0.5" height="0.5"/>
<rect x="8.5" y="3.5" width="0.5" height="0.5"/>
<rect x="12.0" y="3.5" width="0.5" height="0.5"/>
<rect x="13.0" y="3.5" width="0.5" height="0.5"/>
<rect x="14.0" y="3.5" width="0.5" height="0.5"/>
<rect x="14.5" y="3.5" width="0.5" height="0.5"/>
<rect x="15.0" y="3.5" width="0.5" height="0.5"/>
<rect x="16.0" y="3.5" width="0.5" height="0.5"/>
<rect x="2.0" y="4.0" width="0.5" height="0.5"/>
<rect x="3.0" y="4.0" width="0.5" height="0.5"/>
<rect x="3.5" y="4.0" width="0.5" height="0.5"/>
<rect x="4.0" y="4.0" width="0.5" height="0.5"/>
<rect x="5.0" y="4.0" width="0.5" height="0.5"/>
<rect x="6.0" y="4.0" width="0.5" height="0.5"/>
<rect x="6.5" y="4.0" width="0.5" height="0.5"/>
<rect x="7.0" y="4.0" width="0.5" height="0.5"/>
<rect x="8.0" y="4.0" width="0.5" height="0.5"/>
<rect x="8.5" y="4.0" width="0.5" height="0.5"/>
<rect x="9.0" y="4.0" width="0.5" height="0.5"/>
<rect x="9.5" y="4.0" width="0.5" height="0.5"/>
<rect x="10.0" y="4.0" width="0.5" height="0.5"/>
<rect x="10.5" y="4.0" width="0.5" height="0.5"/>
<rect x="11.5" y="4.0" width="0.5" height="0.5"/>
<rect x="13.0" y="4.0" width="0.5" height="0.5"/>
<rect x="14.0" y="4.0" width="0.5" height="0.5"/>
<rect x="14.5" y="4.0" width="0.5" height="0.5"/>
<rect x="15.0" y="4.0" width="0.5" height="0.5"/>
<rect x="16.0" y="4.0" width="0.5" height="0.5"/>
<rect x="2.0" y="4.5" width="0.5" height="0.5"/>
<rect x="5.0" y="4.5" width="0.5" height="0.5"/>
<rect x="7.0" y="4.5" width="0.5" height="0.5"/>
<rect x="7.5" y="4.5" width="0.5" height="0.5"/>
<rect x="10.0" y="4.5" width="0.5" height="0.5"/>
<rect x="10.5" y="4.5" width="0.5" height="0.5"/>
<rect x="11.0" y="4.5" width="0.5" height="0.5"/>
<rect x="12.0" y="4.5" width="0.5" height="0.5"/>
<rect x="13.0" y="4.5" width="0.5" height="0.5"/>
<rect x="16.0" y="4.5" width="0.5" height="0.5"/>
<rect x="2.0" y="5.0" width="0.5" height="0.5"/>
<rect x="2.5" y="5.0" width="0.5" height="0.5"/>
<rect x="3.0" y="5.0" width="0.5" height="0.5"/>
<rect x="3.5" y="5.0" width="0.5" height="0.5"/>
<rect x="4.0" y="5.0" width="0.5" height="0.5"/>
<rect x="4.5" y="5.0" width="0.5" height="0.5"/>
<rect x="5.0" y="5.0" width="0.5" height="0.5"/>
<rect x="6.0" y="5.0" width="0.5" height="0.5"/>
<rect x="7.0" y="5.0" width="0.5" height="0.5"/>
<rect x="8.0" y="5.0" width="0.5" height="0.5"/>
<rect x="9.0" y="5.0" width="0.5" height="0.5"/>
<rect x="10.0" y="5.0" width="0.5" height="0.5"/>
<rect x="11.0" y="5.0" width="0.5" height="0.5"/>
<rect x="12.0" y="5.0" width="0.5" height="0.5"/>
<rect x="13.0" y="5.0" width="0.5" height="0.5"/>
<rect x="13.5" y="5.0" width="0.5" height="0.5"/>
<rect x="14.0" y="5.0" width="0.5" height="0.5"/>
<rect x="14.5" y="5.0" width="0.5" height="0.5"/>
<rect x="15.0" y="5.0" width="0.5" height="0.5"/>
<rect x="15.5" y="5.0" width="0.5" height="0.5"/>
<rect x="16.0" y="5.0" width="0.5" height="0.5"/>
<rect x="8.5" y="5.5" width="0.5" height="0.5"/>
<rect x="10.0" y="5.5" width="0.5" height="0.5"/>
<rect x="11.0" y="5.5" width="0.5" height="0.5"/>
<rect x="2.0" y="6.0" width="0.5" height="0.5"/>
<rect x="3.5" y="6.0" width="0.5" height="0.5"/>
<rect x="4.0" y="6.0" width="0.5" height="0.5"/>
<rect x="4.5" y="6.0" width="0.5" height="0.5"/>
<rect x="5.0" y="6.0" width="0.5" height="0.5"/>
<rect x="5.5" y="6.0" width="0.5" height="0.5"/>
<rect x="6.0" y="6.0" width="0.5" height="0.5"/>
<rect x="6.5" y="6.0" width="0.5" height="0.5"/>
<rect x="7.0" y="6.0" width="0.5" height="0.5"/>
<rect x="8.0" y="6.0" width="0.5" height="0.5"/>
<rect x="9.0" y="6.0" width="0.5" height="0.5"/>
<rect x="9.5" y="6.0" width="0.5" height="0.5"/>
<rect x="10.5" y="6.0" width="0.5" height="0.5"/>
<rect x="12.5" y="6.0" width="0.5" height="0.5"/>
<rect x="14.0" y="6.0" width="0.5" height="0.5"/>
<rect x="15.0" y="6.0" width="0.5" height="0.5"/>
<rect x="15.5" y="6.0" width="0.5" height="0.5"/>
<rect x="16.0" y="6.0" width="0.5" height="0.5"/>
<rect x="2.5" y="6.5" width="0.5" height="0.5"/>
<rect x="3.0" y="6.5" width="0.5" height="0.5"/>
<rect x="3.5" y="6.5" width="0.5" height="0.5"/>
<rect x="4.0" y="6.5" width="0.5" height="0.5"/>
<rect x="5.5" y="6.5" width="0.5" height="0.5"/>
<rect x="7.0" y="6.5" width="0.5" height="0.5"/>
<rect x="7.5" y="6.5" width="0.5" height="0.5"/>
<rect x="8.0" y="6.5" width="0.5" height="0.5"/>
<rect x="9.5" y="6.5" width="0.5" height="0.5"/>
<rect x="11.5" y="6.5" width="0.5" height="0.5"/>
<rect x="12.5" y="6.5" width="0.5" height="0.5"/>
<rect x="13.5" y="6.5" width="0.5" height="0.5"/>
<rect x="14.0" y="6.5" width="0.5" height="0.5"/>
<rect x="15.0" y="6.5" width="0.5" height="0.5"/>
<rect x="15.5" y="6.5" width="0.5" height="0.5"/>
<rect x="3.0" y="7.0" width="0.5" height="0.5"/>
<rect x="4.0" y="7.0" width="0.5" height="0.5"/>
<rect x="5.0" y="7.0" width="0.5" height="0.5"/>
<rect x="6.5" y="7.0" width="0.5" height="0.5"/>
<rect x="7.0" y="7.0" width="0.5" height="0.5"/>
<rect x="7.5" y="7.0" width="0.5" height="0.5"/>
<rect x="9.5" y="7.0" width="0.5" height="0.5"/>
<rect x="10.5" y="7.0" width="0.5" height="0.5"/>
<rect x="12.0" y="7.0" width="0.5" height="0.5"/>
<rect x="13.5" y="7.0" width="0.5" height="0.5"/>
<rect x="14.0" y="7.0" width="0.5" height="0.5"/>
<rect x="15.0" y="7.0" width="0.5" height="0.5"/>
<rect x="2.0" y="7.5" width="0.5" height="0.5"/>
<rect x="2.5" y="7.5" width="0.5" height="0.5"/>
<rect x="3.5" y="7.5" width="0.5" height="0.5"/>
<rect x="5.5" y="7.5" width="0.5" height="0.5"/>
<rect x="6.0" y="7.5" width="0.5" height="0.5"/>
<rect x="7.0" y="7.5" width="0.5" height="0.5"/>
<rect x="7.5" y="7.5" width="0.5" height="0.5"/>
<rect x="8.0" y="7.5" width="0.5" height="0.5"/>
<rect x="9.5" y="7.5" width="0.5" height="0.5"/>
<rect x="10.0" y="7.5" width="0.5" height="0.5"/>
<rect x="10.5" y="7.5" width="0.5" height="0.5"/>
<rect x="11.5" y="7.5" width="0.5" height="0.5"/>
<rect x="12.5" y="7.5" width="0.5" height="0.5"/>
<rect x="13.0" y="7.5" width="0.5" height="0.5"/>
<rect x="13.5" y="7.5" width="0.5" height="0.5"/>
<rect x="14.5" y="7.5" width="0.5" height="0.5"/>
<rect x="16.0" y="7.5" width="0.5" height="0.5"/>
<rect x="2.0" y="8.0" width="0.5" height="0.5"/>
<rect x="2.5" y="8.0" width="0.5" height="0.5"/>
<rect x="3.0" y="8.0" width="0.5" height="0.5"/>
<rect x="3.5" y="8.0" width="0.5" height="0.5"/>
<rect x="4.0" y="8.0" width="0.5" height="0.5"/>
<rect x="4.5" y="8.0" width="0.5" height="0.5"/>
<rect x="5.0" y="8.0" width="0.5" height="0.5"/>
<rect x="6.0" y="8.0" width="0.5" height="0.5"/>
<rect x="6.5" y="8.0" width="0.5" height="0.5"/>
<rect x="7.0" y="8.0" width="0.5" height="0.5"/>
<rect x="7.5" y="8.0" width="0.5" height="0.5"/>
<rect x="9.5" y="8.0" width="0.5" height="0.5"/>
<rect x="12.0" y="8.0" width="0.5" height="0.5"/>
<rect x="13.0" y="8.0" width="0.5" height="0.5"/>
<rect x="13.5" y="8.0" width="0.5" height="0.5"/>
<rect x="16.0" y="8.0" width="0.5" height="0.5"/>
<rect x="2.5" y="8.5" width="0.5" height="0.5"/>
<rect x="3.5" y="8.5" width="0.5" height="0.5"/>
<rect x="4.0" y="8.5" width="0.5" height="0.5"/>
<rect x="4.5" y="8.5" width="0.5" height="0.5"/>
<rect x="6.5" y="8.5" width="0.5" height="0.5"/>
<rect x="7.0" y="8.5" width="0.5" height="0.5"/>
<rect x="8.0" y="8.5" width="0.5" height="0.5"/>
<rect x="8.5" y="8.5" width="0.5" height="0.5"/>
<rect x="9.0" y="8.5" width="0.5" height="0.5"/>
<rect x="9.5" y="8.5" width="0.5" height="0.5"/>
<rect x="10.0" y="8.5" width="0.5" height="0.5"/>
<rect x="11.5" y="8.5" width="0.5" height="0.5"/>
<rect x="13.0" y="8.5" width="0.5" height="0.5"/>
<rect x="13.5" y="8.5" width="0.5" height="0.5"/>
<rect x="14.0" y="8.5" width="0.5" height="0.5"/>
<rect x="14.5" y="8.5" width="0.5" height="0.5"/>
<rect x="15.0" y="8.5" width="0.5" height="0.5"/>
<rect x="15.5" y="8.5" width="0.5" height="0.5"/>
<rect x="16.0" y="8.5" width="0.5" height="0.5"/>
<rect x="3.0" y="9.0" width="0.5" height="0.5"/>
<rect x="4.0" y="9.0" width="0.5" height="0.5"/>
<rect x="4.5" y="9.0" width="0.5" height="0.5"/>
<rect x="5.0" y="9.0" width="0.5" height="0.5"/>
<rect x="5.5" y="9.0" width="0.5" height="0.5"/>
<rect x="6.0" y="9.0" width="0.5" height="0.5"/>
<rect x="7.5" y="9.0" width="0.5" height="0.5"/>
<rect x="9.5" y="9.0" width="0.5" height="0.5"/>
<rect x="10.5" y="9.0" width="0.5" height="0.5"/>
<rect x="11.0" y="9.0" width="0.5" height="0.5"/>
<rect x="11.5" y="9.0" width="0.5" height="0.5"/>
<rect x="12.0" y="9.0" width="0.5" height="0.5"/>
<rect x="12.5" y="9.0" width="0.5" height="0.5"/>
<rect x="13.0" y="9.0" width="0.5" height="0.5"/>
<rect x="14.0" y="9.0" width="0.5" height="0.5"/>
<rect x="15.0" y="9.0" width="0.5" height="0.5"/>
<rect x="16.0" y="9.0" width="0.5" height="0.5"/>
<rect x="2.0" y="9.5" width="0.5" height="0.5"/>
<rect x="2.5" y="9.5" width="0.5" height="0.5"/>
<rect x="3.0" y="9.5" width="0.5" height="0.5"/>
<rect x="3.5" y="9.5" width="0.5" height="0.5"/>
<rect x="5.5" y="9.5" width="0.5" height="0.5"/>
<rect x="6.0" y="9.5" width="0.5" height="0.5"/>
<rect x="6.5" y="9.5" width="0.5" height="0.5"/>
<rect x="7.0" y="9.5" width="0.5" height="0.5"/>
<rect x="10.0" y="9.5" width="0.5" height="0.5"/>
<rect x="11.0" y="9.5" width="0.5" height="0.5"/>
<rect x="11.5" y="9.5" width="0.5" height="0.5"/>
<rect x="13.5" y="9.5" width="0.5" height="0.5"/>
<rect x="14.0" y="9.5" width="0.5" height="0.5"/>
<rect x="15.0" y="9.5" width="0.5" height="0.5"/>
<rect x="16.0" y="9.5" width="0.5" height="0.5"/>
<rect x="2.5" y="10.0" width="0.5" height="0.5"/>
<rect x="3.0" y="10.0" width="0.5" height="0.5"/>
<rect x="4.0" y="10.0" width="0.5" height="0.5"/>
<rect x="4.5" y="10.0" width="0.5" height="0.5"/>
<rect x="5.0" y="10.0" width="0.5" height="0.5"/>
<rect x="5.5" y="10.0" width="0.5" height="0.5"/>
<rect x="7.0" y="10.0" width="0.5" height="0.5"/>
<rect x="8.0" y="10.0" width="0.5" height="0.5"/>
<rect x="8.5" y="10.0" width="0.5" height="0.5"/>
<rect x="9.5" y="10.0" width="0.5" height="0.5"/>
<rect x="11.5" y="10.0" width="0.5" height="0.5"/>
<rect x="12.0" y="10.0" width="0.5" height="0.5"/>
<rect x="12.5" y="10.0" width="0.5" height="0.5"/>
<rect x="14.5" y="10.0" width="0.5" height="0.5"/>
<rect x="2.0" y="10.5" width="0.5" height="0.5"/>
<rect x="2.5" y="10.5" width="0.5" height="0.5"/>
<rect x="4.0" y="10.5" width="0.5" height="0.5"/>
<rect x="4.5" y="10.5" width="0.5" height="0.5"/>
<rect x="5.5" y="10.5" width="0.5" height="0.5"/>
<rect x="6.0" y="10.5" width="0.5" height="0.5"/>
<rect x="6.5" y="10.5" width="0.5" height="0.5"/>
<rect x="7.0" y="10.5" width="0.5" height="0.5"/>
<rect x="7.5" y="10.5" width="0.5" height="0.5"/>
<rect x="8.0" y="10.5" width="0.5" height="0.5"/>
<rect x="8.5" y="10.5" width="0.5" height="0.5"/>
<rect x="9.5" y="10.5" width="0.5" height="0.5"/>
<rect x="10.5" y="10.5" width="0.5" height="0.5"/>
<rect x="11.5" y="10.5" width="0.5" height="0.5"/>
<rect x="14.0" y="10.5" width="0.5" height="0.5"/>
<rect x="15.0" y="10.5" width="0.5" height="0.5"/>
<rect x="15.5" y="10.5" width="0.5" height="0.5"/>
<rect x="2.0" y="11.0" width="0.5" height="0.5"/>
<rect x="2.5" y="11.0" width="0.5" height="0.5"/>
<rect x="3.0" y="11.0" width="0.5" height="0.5"/>
<rect x="4.5" y="11.0" width="0.5" height="0.5"/>
<rect x="5.0" y="11.0" width="0.5" height="0.5"/>
<rect x="5.5" y="11.0" width="0.5" height="0.5"/>
<rect x="6.0" y="11.0" width="0.5" height="0.5"/>
<rect x="7.0" y="11.0" width="0.5" height="0.5"/>
<rect x="7.5" y="11.0" width="0.5" height="0.5"/>
<rect x="8.0" y="11.0" width="0.5" height="0.5"/>
<rect x="8.5" y="11.0" width="0.5" height="0.5"/>
<rect x="9.0" y="11.0" width="0.5" height="0.5"/>
<rect x="9.5" y="11.0" width="0.5" height="0.5"/>
<rect x="11.5" y="11.0" width="0.5" height="0.5"/>
<rect x="14.0" y="11.0" width="0.5" height="0.5"/>
<rect x="14.5" y="11.0" width="0.5" height="0.5"/>
<rect x="16.0" y="11.0" width="0.5" height="0.5"/>
<rect x="2.0" y="11.5" width="0.5" height="0.5"/>
<rect x="2.5" y="11.5" width="0.5" height="0.5"/>
<rect x="3.0" y="11.5" width="0.5" height="0.5"/>
<rect x="4.0" y="11.5" width="0.5" height="0.5"/>
<rect x="4.5" y="11.5" width="0.5" height="0.5"/>
<rect x="6.5" y="11.5" width="0.5" height="0.5"/>
<rect x="7.0" y="11.5" width="0.5" height="0.5"/>
<rect x="8.5" y="11.5" width="0.5" height="0.5"/>
<rect x="9.0" y="11.5" width="0.5" height="0.5"/>
<rect x="10.0" y="11.5" width="0.5" height="0.5"/>
<rect x="11.0" y="11.5" width="0.5" height="0.5"/>
<rect x="11.5" y="11.5" width="0.5" height="0.5"/>
<rect x="13.0" y="11.5" width="0.5" height="0.5"/>
<rect x="14.5" y="11.5" width="0.5" height="0.5"/>
<rect x="15.0" y="11.5" width="0.5" height="0.5"/>
<rect x="2.0" y="12.0" width="0.5" height="0.5"/>
<rect x="2.5" y="12.0" width="0.5" height="0.5"/>
<rect x="3.0" y="12.0" width="0.5" height="0.5"/>
<rect x="3.5" y="12.0" width="0.5" height="0.5"/>
<rect x="4.0" y="12.0" width="0.5" height="0.5"/>
<rect x="4.5" y="12.0" width="0.5" height="0.5"/>
<rect x="5.0" y="12.0" width="0.5" height="0.5"/>
<rect x="6.0" y="12.0" width="0.5" height="0.5"/>
<rect x="6.5" y="12.0" width="0.5" height="0.5"/>
<rect x="7.0" y="12.0" width="0.5" height="0.5"/>
<rect x="8.5" y="12.0" width="0.5" height="0.5"/>
<rect x="10.0" y="12.0" width="0.5" height="0.5"/>
<rect x="10.5" y="12.0" width="0.5" height="0.5"/>
<rect x="12.0" y="12.0" width="0.5" height="0.5"/>
<rect x="12.5" y="12.0" width="0.5" height="0.5"/>
<rect x="13.0" y="12.0" width="0.5" height="0.5"/>
<rect x="13.5" y="12.0" width="0.5" height="0.5"/>
<rect x="14.0" y="12.0" width="0.5" height="0.5"/>
<rect x="14.5" y="12.0" width="0.5" height="0.5"/>
<rect x="15.0" y="12.0" width="0.5" height="0.5"/>
<rect x="15.5" y="12.0" width="0.5" height="0.5"/>
<rect x="6.0" y="12.5" width="0.5" height="0.5"/>
<rect x="6.5" y="12.5" width="0.5" height="0.5"/>
<rect x="8.0" y="12.5" width="0.5" height="0.5"/>
<rect x="8.5" y="12.5" width="0.5" height="0.5"/>
<rect x="9.0" y="12.5" width="0.5" height="0.5"/>
<rect x="9.5" y="12.5" width="0.5" height="0.5"/>
<rect x="10.5" y="12.5" width="0.5" height="0.5"/>
<rect x="11.0" y="12.5" width="0.5" height="0.5"/>
<rect x="12.0" y="12.5" width="0.5" height="0.5"/>
<rect x="14.0" y="12.5" width="0.5" height="0.5"/>
<rect x="14.5" y="12.5" width="0.5" height="0.5"/>
<rect x="2.0" y="13.0" width="0.5" height="0.5"/>
<rect x="2.5" y="13.0" width="0.5" height="0.5"/>
<rect x="3.0" y="13.0" width="0.5" height="0.5"/>
<rect x="3.5" y="13.0" width="0.5" height="0.5"/>
<rect x="4.0" y="13.0" width="0.5" height="0.5"/>
<rect x="4.5" y="13.0" width="0.5" height="0.5"/>
<rect x="5.0" y="13.0" width="0.5" height="0.5"/>
<rect x="6.0" y="13.0" width="0.5" height="0.5"/>
<rect x="8.5" y="13.0" width="0.5" height="0.5"/>
<rect x="9.5" y="13.0" width="0.5" height="0.5"/>
<rect x="10.0" y="13.0" width="0.5" height="0.5"/>
<rect x="10.5" y="13.0" width="0.5" height="0.5"/>
<rect x="11.0" y="13.0" width="0.5" height="0.5"/>
<rect x="11.5" y="13.0" width="0.5" height="0.5"/>
<rect x="12.0" y="13.0" width="0.5" height="0.5"/>
<rect x="13.0" y="13.0" width="0.5" height="0.5"/>
<rect x="14.0" y="13.0" width="0.5" height="0.5"/>
<rect x="14.5" y="13.0" width="0.5" height="0.5"/>
<rect x="2.0" y="13.5" width="0.5" height="0.5"/>
<rect x="5.0" y="13.5" width="0.5" height="0.5"/>
<rect x="6.0" y="13.5" width="0.5" height="0.5"/>
<rect x="6.5" y="13.5" width="0.5" height="0.5"/>
<rect x="7.5" y="13.5" width="0.5" height="0.5"/>
<rect x="8.0" y="13.5" width="0.5" height="0.5"/>
<rect x="8.5" y="13.5" width="0.5" height="0.5"/>
<rect x="9.5" y="13.5" width="0.5" height="0.5"/>
<rect x="10.0" y="13.5" width="0.5" height="0.5"/>
<rect x="10.5" y="13.5" width="0.5" height="0.5"/>
<rect x="11.5" y="13.5" width="0.5" height="0.5"/>
<rect x="12.0" y="13.5" width="0.5" height="0.5"/>
<rect x="14.0" y="13.5" width="0.5" height="0.5"/>
<rect x="15.5" y="13.5" width="0.5" height="0.5"/>
<rect x="16.0" y="13.5" width="0.5" height="0.5"/>
<rect x="2.0" y="14.0" width="0.5" height="0.5"/>
<rect x="3.0" y="14.0" width="0.5" height="0.5"/>
<rect x="3.5" y="14.0" width="0.5" height="0.5"/>
<rect x="4.0" y="14.0" width="0.5" height="0.5"/>
<rect x="5.0" y="14.0" width="0.5" height="0.5"/>
<rect x="6.0" y="14.0" width="0.5" height="0.5"/>
<rect x="6.5" y="14.0" width="0.5" height="0.5"/>
<rect x="7.0" y="14.0" width="0.5" height="0.5"/>
<rect x="7.5" y="14.0" width="0.5" height="0.5"/>
<rect x="8.0" y="14.0" width="0.5" height="0.5"/>
<rect x="8.5" y="14.0" width="0.5" height="0.5"/>
<rect x="9.5" y="14.0" width="0.5" height="0.5"/>
<rect x="11.5" y="14.0" width="0.5" height="0.5"/>
<rect x="12.0" y="14.0" width="0.5" height="0.5"/>
<rect x="12.5" y="14.0" width="0.5" height="0.5"/>
<rect x="13.0" y="14.0" width="0.5" height="0.5"/>
<rect x="13.5" y="14.0" width="0.5" height="0.5"/>
<rect x="14.0" y="14.0" width="0.5" height="0.5"/>
<rect x="14.5" y="14.0" width="0.5" height="0.5"/>
<rect x="15.5" y="14.0" width="0.5" height="0.5"/>
<rect x="2.0" y="14.5" width="0.5" height="0.5"/>
<rect x="3.0" y="14.5" width="0.5" height="0.5"/>
<rect x="3.5" y="14.5" width="0.5" height="0.5"/>
<rect x="4.0" y="14.5" width="0.5" height="0.5"/>
<rect x="5.0" y="14.5" width="0.5" height="0.5"/>
<rect x="6.0" y="14.5" width="0.5" height="0.5"/>
<rect x="7.5" y="14.5" width="0.5" height="0.5"/>
<rect x="9.0" y="14.5" width="0.5" height="0.5"/>
<rect x="10.0" y="14.5" width="0.5" height="0.5"/>
<rect x="12.5" y="14.5" width="0.5" height="0.5"/>
<rect x="16.0" y="14.5" width="0.5" height="0.5"/>
<rect x="2.0" y="15.0" width="0.5" height="0.5"/>
<rect x="3.0" y="15.0" width="0.5" height="0.5"/>
<rect x="3.5" y="15.0" width="0.5" height="0.5"/>
<rect x="4.0" y="15.0" width="0.5" height="0.5"/>
<rect x="5.0" y="15.0" width="0.5" height="0.5"/>
<rect x="7.0" y="15.0" width="0.5" height="0.5"/>
<rect x="8.0" y="15.0" width="0.5" height="0.5"/>
<rect x="9.5" y="15.0" width="0.5" height="0.5"/>
<rect x="10.5" y="15.0" width="0.5" height="0.5"/>
<rect x="11.0" y="15.0" width="0.5" height="0.5"/>
<rect x="12.0" y="15.0" width="0.5" height="0.5"/>
<rect x="12.5" y="15.0" width="0.5" height="0.5"/>
<rect x="13.5" y="15.0" width="0.5" height="0.5"/>
<rect x="14.0" y="15.0" width="0.5" height="0.5"/>
<rect x="15.0" y="15.0" width="0.5" height="0.5"/>
<rect x="15.5" y="15.0" width="0.5" height="0.5"/>
<rect x="16.0" y="15.0" width="0.5" height="0.5"/>
<rect x="2.0" y="15.5" width="0.5" height="0.5"/>
<rect x="5.0" y="15.5" width="0.5" height="0.5"/>
<rect x="6.5" y="15.5" width="0.5" height="0.5"/>
<rect x="7.0" y="15.5" width="0.5" height="0.5"/>
<rect x="8.0" y="15.5" width="0.5" height="0.5"/>
<rect x="9.5" y="15.5" width="0.5" height="0.5"/>
<rect x="13.0" y="15.5" width="0.5" height="0.5"/>
<rect x="13.5" y="15.5" width="0.5" height="0.5"/>
<rect x="14.5" y="15.5" width="0.5" height="0.5"/>
<rect x="15.0" y="15.5" width="0.5" height="0.5"/>
<rect x="16.0" y="15.5" width="0.5" height="0.5"/>
<rect x="2.0" y="16.0" width="0.5" height="0.5"/>
<rect x="2.5" y="16.0" width="0.5" height="0.5"/>
<rect x="3.0" y="16.0" width="0.5" height="0.5"/>
<rect x="3.5" y="16.0" width="0.5" height="0.5"/>
<rect x="4.0" y="16.0" width="0.5" height="0.5"/>
<rect x="4.5" y="16.0" width="0.5" height="0.5"/>
<rect x="5.0" y="16.0" width="0.5" height="0.5"/>
<rect x="6.0" y="16.0" width="0.5" height="0.5"/>
<rect x="8.0" y="16.0" width="0.5" height="0.5"/>
<rect x="8.5" y="16.0" width="0.5" height="0.5"/>
<rect x="11.0" y="16.0" width="0.5" height="0.5"/>
<rect x="11.5" y="16.0" width="0.5" height="0.5"/>
<rect x="12.0" y="16.0" width="0.5" height="0.5"/>
<rect x="13.0" y="16.0" width="0.5" height="0.5"/>
<rect x="14.0" y="16.0" width="0.5" height="0.5"/>
</g></svg>