<svg xmlns="http://www.w3.org/2000/svg" width="1400" height="600" viewBox="0 0 1400 600">
<rect width="100%" height="100%" fill="white"/>
<g stroke="black" stroke-width="2" fill="none">
<path d="M 457.65,245.54 A 55,55 0 0 1 457.65,354.46"/>
<path d="M 462.39,211.87 A 89,89 0 0 1 462.39,388.13"/>
<path d="M 467.12,178.20 A 123,123 0 0 1 467.12,421.80"/>
<path d="M 471.85,144.53 A 157,157 0 0 1 471.85,455.47"/>
<path d="M 476.58,110.86 A 191,191 0 0 1 476.58,489.14"/>
<path d="M 481.31,77.19 A 225,225 0 0 1 481.31,522.81"/>
<path d="M 486.05,43.52 A 259,259 0 0 1 486.05,556.48"/>
<path d="M 490.78,9.85 A 293,293 0 0 1 490.78,590.15"/>
<path d="M 495.51,-23.82 A 327,327 0 0 1 495.51,623.82"/>
<path d="M 500.24,-57.49 A 361,361 0 0 1 500.24,657.49"/>
<path d="M 504.97,-91.16 A 395,395 0 0 1 504.97,691.16"/>
<path d="M 509.71,-124.83 A 429,429 0 0 1 509.71,724.83"/>
<path d="M 514.44,-158.49 A 463,463 0 0 1 514.44,758.49"/>
<path d="M 519.17,-192.16 A 497,497 0 0 1 519.17,792.16"/>
<path d="M 523.90,-225.83 A 531,531 0 0 1 523.90,825.83"/>
<path d="M 528.63,-259.50 A 565,565 0 0 1 528.63,859.50"/>
<path d="M 533.36,-293.17 A 599,599 0 0 1 533.36,893.17"/>
<path d="M 538.10,-326.84 A 633,633 0 0 1 538.10,926.84"/>
<path d="M 542.83,-360.51 A 667,667 0 0 1 542.83,960.51"/>
<path d="M 942.35,354.46 A 55,55 0 0 0 942.35,245.54"/>
<path d="M 937.61,388.13 A 89,89 0 0 0 937.61,211.87"/>
<path d="M 932.88,421.80 A 123,123 0 0 0 932.88,178.20"/>
<path d="M 928.15,455.47 A 157,157 0 0 0 928.15,144.53"/>
<path d="M 923.42,489.14 A 191,191 0 0 0 923.42,110.86"/>
<path d="M 918.69,522.81 A 225,225 0 0 0 918.69,77.19"/>
<path d="M 913.95,556.48 A 259,259 0 0 0 913.95,43.52"/>
<path d="M 909.22,590.15 A 293,293 0 0 0 909.22,9.85"/>
<path d="M 904.49,623.82 A 327,327 0 0 0 904.49,-23.82"/>
<path d="M 899.76,657.49 A 361,361 0 0 0 899.76,-57.49"/>
<path d="M 895.03,691.16 A 395,395 0 0 0 895.03,-91.16"/>
<path d="M 890.29,724.83 A 429,429 0 0 0 890.29,-124.83"/>
<path d="M 885.56,758.49 A 463,463 0 0 0 885.56,-158.49"/>
<path d="M 880.83,792.16 A 497,497 0 0 0 880.83,-192.16"/>
<path d="M 876.10,825.83 A 531,531 0 0 0 876.10,-225.83"/>
<path d="M 871.37,859.50 A 565,565 0 0 0 871.37,-259.50"/>
<path d="M 866.64,893.17 A 599,599 0 0 0 866.64,-293.17"/>
<path d="M 861.90,926.84 A 633,633 0 0 0 861.90,-326.84"/>
<path d="M 857.17,960.51 A 667,667 0 0 0 857.17,-360.51"/>
</g>
<g fill="white">
<path d="M 520.0,220.0 L 520.0,340.0 A 40.0,40.0 0 0 0 600.0,340.0 L 600.0,220.0"/>
<path d="M 660.0,220.0 A 40.0,40.0 0 0 1 740.0,260.0 A 40.0,40.0 0 0 0 660.0,300 A 40.0,40.0 0 0 1 740.0,340.0 A 40.0,40.0 0 0 0 660.0,380.0"/>
<path d="M 780.0,220.0 A 40.0,40.0 0 0 1 860.0,260.0 A 40.0,40.0 0 0 0 780.0,300 A 40.0,40.0 0 0 1 860.0,340.0 A 40.0,40.0 0 0 0 780.0,380.0"/>
</g>
<g stroke="black" stroke-width="3" fill="none">
<path d="M 520.0,220.0 L 520.0,340.0 A 40.0,40.0 0 0 0 600.0,340.0 L 600.0,220.0"/>
<path d="M 660.0,220.0 A 40.0,40.0 0 0 1 740.0,260.0 A 40.0,40.0 0 0 0 660.0,300 A 40.0,40.0 0 0 1 740.0,340.0 A 40.0,40.0 0 0 0 660.0,380.0"/>
<path d="M 780.0,220.0 A 40.0,40.0 0 0 1 860.0,260.0 A 40.0,40.0 0 0 0 780.0,300 A 40.0,40.0 0 0 1 860.0,340.0 A 40.0,40.0 0 0 0 780.0,380.0"/>
</g>
</svg>